# xmcd
#
# Track frame offsets: 
#        150
#        19051
#        36449
#        54837
#        82880
#        100375
#        120042
#        134853
#        151231
#        168462
#        191089
#
# Disc length: 2831 seconds
#
# Revision: 0
# Processed by: cddbd v1.5.2PL0 Copyright (c) Steve Scherf et al.
# Submitted via: ExactAudioCopy v0.99pb5
#
DISCID=880b0d0b
DTITLE=Teddy J. Politzer - Mean Blues
DYEAR=2002
DGENRE=Blues
TTITLE0=Wailin' and Sailin'
TTITLE1=I Was Baited
TTITLE2=Fool In Love
TTITLE3=Black Night Is Falling
TTITLE4=Just Like I Treat You
TTITLE5=Sugar Mama
TTITLE6=Let Me Pass
TTITLE7=Cut It Out!
TTITLE8=Next Time You See Me
TTITLE9=I Idolize You
TTITLE10=Gettin' Somethin' Straight
EXTD=
EXTT0=
EXTT1=
EXTT2=
EXTT3=
EXTT4=
EXTT5=
EXTT6=
EXTT7=
EXTT8=
EXTT9=
EXTT10=
PLAYORDER=
